<mxfile host="65bd71144e">
    <diagram id="7GxQXAaSdPLjsw9wDCDl" name="Page-1">
        <mxGraphModel dx="536" dy="361" grid="1" gridSize="10" guides="1" tooltips="1" connect="1" arrows="1" fold="1" page="1" pageScale="1" pageWidth="827" pageHeight="1169" math="0" shadow="0">
            <root>
                <mxCell id="0"/>
                <mxCell id="1" parent="0"/>
                <mxCell id="2" value="Platform" style="swimlane;fillColor=#FFFFFF;" parent="1" vertex="1">
                    <mxGeometry x="180" y="10" width="280" height="195" as="geometry"/>
                </mxCell>
                <mxCell id="21" value="" style="whiteSpace=wrap;html=1;strokeColor=#F0F0F0;fillColor=#FFFFFF;" parent="2" vertex="1">
                    <mxGeometry y="25" width="280" height="165" as="geometry"/>
                </mxCell>
                <mxCell id="3" value="- Position: Vector2&lt;br&gt;" style="text;html=1;align=center;verticalAlign=middle;resizable=0;points=[];autosize=1;strokeColor=none;fillColor=#FFFFFF;" parent="2" vertex="1">
                    <mxGeometry x="10" y="35" width="120" height="30" as="geometry"/>
                </mxCell>
                <mxCell id="5" value="- Direction: Int" style="text;html=1;align=center;verticalAlign=middle;resizable=0;points=[];autosize=1;strokeColor=none;fillColor=#FFFFFF;" parent="2" vertex="1">
                    <mxGeometry x="10" y="65" width="100" height="30" as="geometry"/>
                </mxCell>
                <mxCell id="6" value="- InputsActivated : &amp;lt;string, bool&amp;gt;{}" style="text;html=1;align=center;verticalAlign=middle;resizable=0;points=[];autosize=1;strokeColor=none;fillColor=#FFFFFF;" parent="2" vertex="1">
                    <mxGeometry x="10" y="95" width="200" height="30" as="geometry"/>
                </mxCell>
                <mxCell id="12" value="- Width : Int" style="text;html=1;align=center;verticalAlign=middle;resizable=0;points=[];autosize=1;strokeColor=none;fillColor=#FFFFFF;" parent="2" vertex="1">
                    <mxGeometry x="15" y="125" width="80" height="30" as="geometry"/>
                </mxCell>
                <mxCell id="13" value="- Height: Int" style="text;html=1;align=center;verticalAlign=middle;resizable=0;points=[];autosize=1;strokeColor=none;fillColor=#FFFFFF;" parent="2" vertex="1">
                    <mxGeometry x="10" y="155" width="90" height="30" as="geometry"/>
                </mxCell>
                <mxCell id="11" value="" style="rounded=0;whiteSpace=wrap;html=1;" parent="1" vertex="1">
                    <mxGeometry x="180" y="200" width="280" height="200" as="geometry"/>
                </mxCell>
                <mxCell id="14" value="Platform( Width: Int, Height: Int ) : Void" style="text;html=1;align=center;verticalAlign=middle;resizable=0;points=[];autosize=1;strokeColor=none;fillColor=none;" parent="1" vertex="1">
                    <mxGeometry x="195" y="210" width="230" height="30" as="geometry"/>
                </mxCell>
                <mxCell id="15" value="+ ProcessInput( Event : KeyEvent ) : Void" style="text;html=1;align=center;verticalAlign=middle;resizable=0;points=[];autosize=1;strokeColor=none;fillColor=none;" parent="1" vertex="1">
                    <mxGeometry x="195" y="300" width="240" height="30" as="geometry"/>
                </mxCell>
                <mxCell id="16" value="+ Update() : Void" style="text;html=1;align=center;verticalAlign=middle;resizable=0;points=[];autosize=1;strokeColor=none;fillColor=none;" parent="1" vertex="1">
                    <mxGeometry x="195" y="330" width="110" height="30" as="geometry"/>
                </mxCell>
                <mxCell id="17" value="+ Draw() : Void" style="text;html=1;align=center;verticalAlign=middle;resizable=0;points=[];autosize=1;strokeColor=none;fillColor=none;" parent="1" vertex="1">
                    <mxGeometry x="195" y="360" width="100" height="30" as="geometry"/>
                </mxCell>
                <mxCell id="18" value="+ get Width : Int" style="text;html=1;align=center;verticalAlign=middle;resizable=0;points=[];autosize=1;strokeColor=none;fillColor=none;" parent="1" vertex="1">
                    <mxGeometry x="195" y="240" width="110" height="30" as="geometry"/>
                </mxCell>
                <mxCell id="19" value="+ get Height : Int" style="text;html=1;align=center;verticalAlign=middle;resizable=0;points=[];autosize=1;strokeColor=none;fillColor=none;" parent="1" vertex="1">
                    <mxGeometry x="195" y="270" width="110" height="30" as="geometry"/>
                </mxCell>
            </root>
        </mxGraphModel>
    </diagram>
</mxfile>